<?xml version="1.0" standalone="no"?>
<!DOCTYPE svg PUBLIC "-//W3C//DTD SVG 20010904//EN"
 "http://www.w3.org/TR/2001/REC-SVG-20010904/DTD/svg10.dtd">
<svg version="1.0" xmlns="http://www.w3.org/2000/svg"
 width="782.000000pt" height="782.000000pt" viewBox="0 0 782.000000 782.000000"
 preserveAspectRatio="xMidYMid meet">

<g transform="translate(0.000000,782.000000) scale(0.100000,-0.100000)"
fill="#000000" stroke="none">
<path d="M0 3910 l0 -3910 3910 0 3910 0 0 3910 0 3910 -3910 0 -3910 0 0
-3910z m4603 1405 c172 -36 303 -170 348 -355 19 -77 16 -222 -5 -295 -61
-208 -219 -374 -581 -610 -328 -213 -373 -248 -411 -312 -35 -58 -31 -122 9
-141 44 -21 89 0 145 66 26 31 74 85 108 121 56 59 65 64 111 68 38 4 53 1 66
-12 39 -38 39 -37 -321 -985 -50 -133 -94 -235 -101 -235 -7 0 -47 90 -91 205
-845 2221 -808 2126 -882 2253 -58 100 -105 143 -178 164 -33 9 -60 20 -60 25
0 4 191 8 425 8 277 0 425 -3 425 -10 0 -5 -6 -10 -12 -10 -49 -1 -155 -23
-186 -39 -106 -55 -134 -145 -94 -311 10 -41 94 -275 187 -520 153 -405 200
-520 179 -435 -15 58 -9 454 9 555 69 402 263 677 544 775 122 43 255 54 366
30z m-2458 -2895 c29 -27 35 -60 20 -97 -13 -30 -63 -59 -87 -50 -8 3 -5 6 6
6 32 2 66 41 66 77 0 43 -28 75 -76 85 l-39 8 43 -4 c27 -2 53 -12 67 -25z
m963 23 c-10 -2 -26 -2 -35 0 -10 3 -2 5 17 5 19 0 27 -2 18 -5z m1050 0 c-10
-2 -26 -2 -35 0 -10 3 -2 5 17 5 19 0 27 -2 18 -5z m680 0 c-10 -2 -26 -2 -35
0 -10 3 -2 5 17 5 19 0 27 -2 18 -5z m-3250 -14 c-26 -15 -23 -35 27 -169 43
-115 56 -166 36 -145 -4 6 -32 73 -61 150 -29 77 -61 148 -72 158 -20 16 -19
17 33 17 42 -1 50 -3 37 -11z m192 -11 c-18 -20 -21 -20 -33 -6 -6 9 -19 18
-27 21 -8 3 7 6 33 6 l48 1 -21 -22z m212 -130 c-3 -136 -1 -154 14 -165 15
-11 11 -13 -32 -13 -38 1 -45 3 -31 11 15 9 17 27 17 154 0 127 -2 145 -17
154 -15 9 -12 10 17 11 l35 0 -3 -152z m426 141 c-16 -9 -18 -27 -18 -154 0
-127 2 -145 18 -154 13 -8 6 -10 -33 -10 -39 0 -46 2 -32 10 15 9 17 27 17
154 0 127 -2 145 -17 154 -14 8 -7 10 32 10 39 0 46 -2 33 -10z m291 -129 l86
-134 3 94 c3 109 -1 133 -28 160 -20 20 -20 20 28 20 37 -1 43 -3 30 -11 -16
-9 -18 -28 -18 -165 0 -85 -4 -153 -8 -150 -5 3 -51 71 -103 152 l-94 147 -3
-104 c-4 -127 2 -164 31 -184 20 -14 19 -15 -28 -15 -39 1 -46 3 -32 11 15 9
17 27 17 154 0 126 -2 145 -17 155 -15 8 -12 10 16 8 32 -3 39 -11 120 -138z
m326 -25 l0 -165 -35 0 c-29 1 -32 2 -17 11 15 9 17 27 17 154 0 127 -2 145
-17 154 -15 9 -12 10 17 11 l35 0 0 -165z m144 140 c35 -30 53 -77 53 -140 0
-25 -6 -60 -12 -79 -11 -34 -61 -86 -82 -86 -6 0 2 10 17 22 37 29 55 76 55
143 0 67 -18 114 -55 143 -15 12 -23 22 -17 22 6 0 24 -11 41 -25z m390 -130
c34 -82 69 -156 78 -162 14 -11 8 -13 -38 -12 -42 0 -49 2 -31 9 28 12 28 24
0 91 -23 53 -23 54 -29 24 -6 -26 -7 -24 -8 15 -1 25 -12 71 -26 104 -13 32
-21 65 -18 72 3 8 7 14 8 12 2 -2 30 -70 64 -153z m516 -10 l0 -165 -35 0
c-29 1 -32 2 -17 11 15 9 17 27 17 154 0 127 -2 145 -17 154 -15 9 -12 10 17
11 l35 0 0 -165z m144 140 c35 -30 53 -77 53 -140 0 -25 -6 -60 -12 -79 -11
-34 -61 -86 -82 -86 -6 0 2 10 17 22 37 29 55 76 55 143 0 67 -18 114 -55 143
-15 12 -23 22 -17 22 6 0 24 -11 41 -25z m279 14 c-16 -9 -18 -27 -18 -154 0
-127 2 -145 18 -154 13 -8 6 -10 -33 -10 -39 0 -46 2 -32 10 15 9 17 27 17
154 0 127 -2 145 -17 154 -14 8 -7 10 32 10 39 0 46 -2 33 -10z m250 -9 c-79
-62 -76 -238 4 -294 12 -9 16 -16 9 -16 -39 0 -101 101 -101 165 0 63 62 165
100 165 7 0 1 -9 -12 -20z m140 11 c8 -5 12 -15 10 -22 -2 -10 -9 -8 -25 9
-22 21 -12 30 15 13z m260 -2 c-16 -9 -18 -27 -18 -154 0 -127 2 -145 18 -154
13 -8 6 -10 -33 -10 -39 0 -46 2 -32 10 15 9 17 27 17 154 0 127 -2 145 -17
154 -14 8 -7 10 32 10 39 0 46 -2 33 -10z m372 -14 l0 -25 -20 20 c-11 11 -33
20 -50 20 l-30 0 0 -154 c0 -114 3 -156 13 -159 6 -3 -6 -6 -27 -6 -31 -1 -37
2 -28 11 8 8 12 58 12 160 l0 148 -30 0 c-17 0 -39 -9 -50 -20 l-20 -20 0 25
0 25 115 0 115 0 0 -25z m329 -130 c33 -82 69 -156 78 -162 14 -11 8 -13 -38
-12 -42 0 -49 2 -31 9 28 12 28 24 0 91 -23 53 -23 54 -29 24 -6 -26 -7 -24
-8 15 -1 25 -12 71 -26 104 -13 32 -21 65 -18 72 3 8 7 14 8 12 1 -2 30 -70
64 -153z m289 144 c-16 -9 -18 -28 -18 -164 l0 -155 -27 0 c-21 0 -24 3 -15
12 8 8 12 57 12 155 0 125 -2 143 -17 152 -14 8 -7 10 32 10 39 0 46 -2 33
-10z m-1253 -123 c32 -9 44 -16 35 -20 -9 -4 -38 0 -65 9 -70 21 -94 19 -105
-7 -6 -17 -9 -18 -9 -6 -1 9 9 24 22 33 23 17 32 16 122 -9z m-1400 -22 c-80
-65 -85 -71 -85 -107 0 -38 12 -53 50 -60 19 -3 15 -5 -12 -6 -30 -1 -41 4
-54 24 -23 35 -11 68 37 107 23 18 51 42 63 54 11 11 23 18 26 16 3 -2 -8 -15
-25 -28z m2290 0 c-80 -65 -85 -71 -85 -107 0 -38 12 -53 50 -60 19 -3 15 -5
-12 -6 -30 -1 -41 4 -54 24 -23 35 -11 68 37 107 23 18 51 42 63 54 11 11 23
18 26 16 3 -2 -8 -15 -25 -28z m-897 -25 c29 -10 42 -32 42 -72 0 -21 -52 -77
-71 -77 -6 0 0 9 15 21 21 16 26 29 26 64 0 24 -6 47 -12 52 -7 4 -38 11 -68
14 l-55 6 46 2 c25 0 60 -4 77 -10z m-2796 -36 c13 -16 35 -43 48 -61 12 -19
32 -37 44 -42 18 -8 17 -9 -11 -9 -28 -1 -37 6 -71 57 -21 31 -42 63 -46 70
-13 22 10 12 36 -15z m1438 -66 c0 -2 -10 -12 -22 -23 l-23 -19 19 23 c18 21
26 27 26 19z m2290 0 c0 -2 -10 -12 -22 -23 l-23 -19 19 23 c18 21 26 27 26
19z m490 -22 c0 -23 -4 -25 -42 -24 l-43 1 33 9 c18 6 35 16 39 24 8 22 13 18
13 -10z m-3202 -32 c-10 -2 -26 -2 -35 0 -10 3 -2 5 17 5 19 0 27 -2 18 -5z
m1050 0 c-10 -2 -26 -2 -35 0 -10 3 -2 5 17 5 19 0 27 -2 18 -5z m675 0 c-7
-2 -21 -2 -30 0 -10 3 -4 5 12 5 17 0 24 -2 18 -5z m-1708 -203 c29 -27 35
-60 20 -97 -13 -30 -63 -59 -87 -50 -8 3 -5 6 6 6 32 2 66 41 66 77 0 43 -28
75 -76 85 l-39 8 43 -4 c27 -2 53 -12 67 -25z m2043 23 c-10 -2 -26 -2 -35 0
-10 3 -2 5 17 5 19 0 27 -2 18 -5z m-2388 -28 l0 -25 -20 20 c-11 11 -33 20
-50 20 l-30 0 0 -154 c0 -114 3 -156 13 -159 6 -3 -6 -6 -27 -6 -31 -1 -37 2
-28 11 8 8 12 58 12 160 l0 148 -30 0 c-17 0 -39 -9 -50 -20 l-20 -20 0 25 0
25 115 0 115 0 0 -25z m192 -127 c-3 -136 -1 -154 14 -165 15 -11 11 -13 -32
-13 -38 1 -45 3 -31 11 15 9 17 27 17 154 0 127 -2 145 -17 154 -15 9 -12 10
17 11 l35 0 -3 -152z m537 -3 c33 -82 69 -156 78 -162 14 -11 8 -13 -38 -12
-42 0 -49 2 -31 9 28 12 28 24 0 91 -23 53 -23 54 -29 24 -6 -26 -7 -24 -8 15
-1 25 -12 71 -26 104 -13 32 -21 65 -18 72 3 8 7 14 8 12 1 -2 30 -70 64 -153z
m289 144 c-16 -9 -18 -27 -18 -154 0 -127 2 -145 18 -154 13 -8 6 -10 -33 -10
-39 0 -46 2 -32 10 15 9 17 27 17 154 0 127 -2 145 -17 154 -14 8 -7 10 32 10
39 0 46 -2 33 -10z m291 -129 l86 -134 3 94 c3 109 -1 133 -28 160 -20 20 -20
20 28 20 37 -1 43 -3 30 -11 -16 -9 -18 -28 -18 -165 0 -85 -4 -153 -8 -150
-5 3 -51 71 -103 152 l-94 147 -3 -109 c-3 -124 0 -146 28 -174 20 -20 20 -20
-27 -20 -38 1 -44 3 -30 11 15 9 17 27 17 154 0 126 -2 145 -17 155 -15 8 -12
10 16 8 32 -3 39 -11 120 -138z m349 129 c-16 -9 -18 -27 -18 -154 0 -127 2
-145 18 -154 13 -8 6 -10 -33 -10 -39 0 -46 2 -32 10 15 9 17 27 17 154 0 127
-2 145 -17 154 -14 8 -7 10 32 10 39 0 46 -2 33 -10z m291 -129 l86 -134 3 94
c3 109 -1 133 -28 160 -20 20 -20 20 28 20 37 -1 43 -3 30 -11 -16 -9 -18 -28
-18 -165 0 -85 -4 -153 -8 -150 -5 3 -51 71 -103 152 l-94 147 -3 -109 c-3
-124 0 -146 28 -174 20 -20 20 -20 -27 -20 -38 1 -44 3 -30 11 15 9 17 27 17
154 0 126 -2 145 -17 155 -15 8 -12 10 16 8 32 -3 39 -11 120 -138z m359 120
c-79 -62 -76 -238 4 -294 12 -9 16 -16 9 -16 -39 0 -101 101 -101 165 0 63 62
165 100 165 7 0 1 -9 -12 -20z m140 11 c8 -5 12 -15 10 -22 -2 -10 -9 -8 -25
9 -22 21 -12 30 15 13z m-3 -125 c32 -9 44 -16 35 -20 -9 -4 -38 0 -65 9 -70
21 -94 19 -105 -7 -6 -17 -9 -18 -9 -6 -1 9 9 24 22 33 23 17 32 16 122 -9z
m-1790 -22 c-80 -65 -85 -71 -85 -107 0 -38 12 -53 50 -60 19 -3 15 -5 -12 -6
-30 -1 -41 4 -54 24 -23 35 -11 68 37 107 23 18 51 42 63 54 11 11 23 18 26
16 3 -2 -8 -15 -25 -28z m1743 -21 c-16 -2 -40 -2 -55 0 -16 2 -3 4 27 4 30 0
43 -2 28 -4z m60 -11 c7 -5 15 -25 19 -45 5 -31 1 -40 -25 -67 -17 -16 -36
-30 -43 -30 -6 0 0 9 15 21 21 16 26 29 26 63 0 23 -5 47 -12 54 -14 14 0 16
20 4z m-2166 -29 c13 -16 35 -43 48 -61 12 -19 32 -37 44 -42 18 -8 17 -9 -11
-9 -28 -1 -37 6 -71 57 -21 31 -42 63 -46 70 -13 22 10 12 36 -15z m398 -66
c0 -2 -10 -12 -22 -23 l-23 -19 19 23 c18 21 26 27 26 19z m1693 -54 c-7 -2
-21 -2 -30 0 -10 3 -4 5 12 5 17 0 24 -2 18 -5z"/>
<path d="M4250 5200 c-288 -50 -508 -386 -550 -842 -15 -153 0 -415 29 -528
21 -81 330 -900 340 -900 10 0 321 835 321 861 0 34 -18 49 -59 49 -36 0 -50
-12 -211 -184 -61 -65 -108 -90 -150 -81 -47 10 -65 39 -64 105 2 110 67 183
332 369 89 62 198 145 242 183 137 119 226 255 255 393 77 364 -150 633 -485
575z"/>
</g>
</svg>
